<?xml version="1.0" encoding="utf-8"?>
<svg width="282px" height="282px" viewBox="0 0 282 282" version="1.1" xmlns:xlink="http://www.w3.org/1999/xlink" xmlns="http://www.w3.org/2000/svg">
  <defs>
    <path d="M0 0L282 0L282 282L0 282L0 0Z" id="path_1" />
    <path d="M0 0L126.312 0L126.312 126.312L0 126.312L0 0Z" id="path_2" />
    <clipPath id="mask_1">
      <use xlink:href="#path_1" />
    </clipPath>
    <clipPath id="mask_2">
      <use xlink:href="#path_2" />
    </clipPath>
  </defs>
  <g id="administration">
    <g id="Administration" fill="#565360" transform="translate(22 209)">
      <path d="M78.5171 10.8696Q79.1323 11.4507 79.9954 11.4507Q80.8499 11.4507 81.4651 10.8696Q82.0803 10.2886 82.0803 9.46824Q82.0803 8.64793 81.4651 8.06687Q80.8499 7.47727 79.9954 7.47727Q79.1323 7.47727 78.5171 8.06687Q77.9019 8.64793 77.9019 9.46824Q77.9019 10.2886 78.5171 10.8696ZM107.303 10.8696Q107.918 11.4507 108.781 11.4507Q109.635 11.4507 110.251 10.8696Q110.866 10.2886 110.866 9.46824Q110.866 8.64793 110.251 8.06687Q109.635 7.47727 108.781 7.47727Q107.918 7.47727 107.303 8.06687Q106.687 8.64793 106.687 9.46824Q106.687 10.2886 107.303 10.8696ZM192.118 10.8696Q192.733 11.4507 193.596 11.4507Q194.451 11.4507 195.066 10.8696Q195.681 10.2886 195.681 9.46824Q195.681 8.64793 195.066 8.06687Q194.451 7.47727 193.596 7.47727Q192.733 7.47727 192.118 8.06687Q191.503 8.64793 191.503 9.46824Q191.503 10.2886 192.118 10.8696ZM0.897217 33.7273L4.1272 33.7273L6.69067 26.5154L16.9788 26.5154L19.5422 33.7273L22.7722 33.7273L13.4241 8.27195L10.2454 8.27195L0.897217 33.7273ZM29.3472 32.9155Q31.1758 34.1289 33.5598 34.1289Q35.397 34.1289 36.4993 33.5136Q37.6101 32.8984 38.2083 32.1123Q38.8064 31.3176 39.1226 30.7964L39.4729 30.7964L39.4729 33.7273L42.3098 33.7273L42.3098 8.27195L39.3789 8.27195L39.3789 17.6714L39.1226 17.6714Q38.8064 17.1758 38.2254 16.3982Q37.6443 15.6206 36.5591 15.0053Q35.4739 14.3901 33.6111 14.3901Q31.1929 14.3901 29.3557 15.5949Q27.5186 16.7998 26.4846 19.0129Q25.4507 21.2261 25.4507 24.2339Q25.4507 27.2673 26.4846 29.489Q27.5186 31.7021 29.3472 32.9155ZM142.189 17.1245L142.189 14.6379L138.113 14.6379L138.113 10.0664L135.174 10.0664L135.174 14.6379L132.294 14.6379L132.294 17.1245L135.174 17.1245L135.174 29.0532Q135.174 30.7195 135.951 31.8132Q136.729 32.907 137.917 33.4453Q139.105 33.9751 140.352 33.9751Q141.172 33.9751 141.702 33.8554Q142.241 33.7358 142.54 33.6247L141.941 30.9929Q141.753 31.0271 141.437 31.0869Q141.13 31.1382 140.643 31.1382Q140.002 31.1382 139.421 30.9331Q138.848 30.728 138.481 30.1128Q138.113 29.4975 138.113 28.2585L138.113 17.1245L142.189 17.1245ZM187.679 14.6379L187.679 17.1245L183.603 17.1245L183.603 28.2585Q183.603 29.4975 183.971 30.1128Q184.338 30.728 184.911 30.9331Q185.492 31.1382 186.133 31.1382Q186.62 31.1382 186.927 31.0869Q187.244 31.0271 187.432 30.9929L188.03 33.6247Q187.731 33.7358 187.192 33.8554Q186.663 33.9751 185.842 33.9751Q184.595 33.9751 183.407 33.4453Q182.219 32.907 181.442 31.8132Q180.664 30.7195 180.664 29.0532L180.664 17.1245L177.784 17.1245L177.784 14.6379L180.664 14.6379L180.664 10.0664L183.603 10.0664L183.603 14.6379L187.679 14.6379ZM16.0046 23.781L7.65625 23.781L11.7322 12.2966L11.9287 12.2966L16.0046 23.781ZM146.611 14.6379L149.448 14.6379L149.448 17.5176L149.644 17.5176Q150.166 16.0991 151.533 15.219Q152.9 14.3388 154.617 14.3388Q154.942 14.3388 155.421 14.3559Q155.908 14.3645 156.156 14.3901L156.156 17.3723Q156.01 17.3296 155.481 17.2527Q154.951 17.1758 154.37 17.1758Q152.276 17.1758 150.909 18.4404Q149.542 19.7051 149.542 21.6448L149.542 33.7273L146.611 33.7273L146.611 14.6379ZM48.0738 14.6379L50.9107 14.6379L50.9107 17.6201L51.1585 17.6201Q51.7567 16.0906 53.0811 15.2446Q54.4141 14.3901 56.2769 14.3901Q58.1654 14.3901 59.43 15.2446Q60.6947 16.0906 61.3953 17.6201L61.6004 17.6201Q62.3353 16.1418 63.7965 15.2702Q65.2662 14.3901 67.317 14.3901Q69.8719 14.3901 71.504 15.988Q73.1361 17.5859 73.1361 20.9526L73.1361 33.7273L70.1966 33.7273L70.1966 20.9526Q70.1966 18.8335 69.043 17.9277Q67.8895 17.0219 66.3172 17.0219Q64.3092 17.0219 63.1983 18.2353Q62.096 19.4487 62.096 21.2944L62.096 33.7273L59.1138 33.7273L59.1138 20.6535Q59.1138 19.0215 58.0543 18.0217Q57.0033 17.0219 55.337 17.0219Q54.192 17.0219 53.2008 17.6372Q52.2181 18.2439 51.6114 19.3205Q51.0047 20.3886 51.0047 21.7986L51.0047 33.7273L48.0738 33.7273L48.0738 14.6379ZM89.7335 22.2429L89.7335 33.7273L86.8026 33.7273L86.8026 14.6379L89.6395 14.6379L89.6395 17.6201L89.8873 17.6201Q90.5538 16.1675 91.921 15.2788Q93.2882 14.3901 95.4586 14.3901Q98.3468 14.3901 100.133 16.1675Q101.919 17.9448 101.919 21.5935L101.919 33.7273L98.9876 33.7273L98.9876 21.7986Q98.9876 19.5427 97.817 18.2866Q96.6463 17.0219 94.6126 17.0219Q92.5106 17.0219 91.1178 18.3891Q89.7335 19.7478 89.7335 22.2429ZM129.115 18.9104L126.474 19.6538Q126.09 18.6626 125.184 17.791Q124.278 16.9194 122.347 16.9194Q120.595 16.9194 119.433 17.7226Q118.271 18.5259 118.271 19.7563Q118.271 20.8501 119.066 21.4824Q119.869 22.1147 121.552 22.542L124.389 23.2341Q129.457 24.4817 129.457 28.4038Q129.457 30.0444 128.517 31.3432Q127.585 32.6335 125.902 33.3855Q124.227 34.1289 122.005 34.1289Q119.083 34.1289 117.169 32.8642Q115.255 31.591 114.742 29.1557L117.528 28.4551Q118.314 31.5398 121.954 31.5398Q124.005 31.5398 125.218 30.6682Q126.432 29.7881 126.432 28.5576Q126.432 26.5324 123.595 25.8745L120.416 25.1225Q117.793 24.5073 116.562 23.1999Q115.34 21.884 115.34 19.9101Q115.34 18.2866 116.255 17.0476Q117.169 15.8086 118.75 15.0993Q120.339 14.3901 122.347 14.3901Q125.184 14.3901 126.808 15.6377Q128.431 16.8767 129.115 18.9104ZM161.961 33.488Q163.439 34.1716 165.259 34.1716Q166.925 34.1716 168.079 33.676Q169.232 33.1804 169.925 32.4712Q170.625 31.7619 170.924 31.1382L171.07 31.1382L171.07 33.7273L174.009 33.7273L174.009 21.1491Q174.009 18.8762 173.257 17.5261Q172.514 16.1675 171.386 15.501Q170.266 14.8259 169.062 14.6123Q167.865 14.3901 166.942 14.3901Q165.507 14.3901 164.02 14.7832Q162.533 15.1677 161.286 16.1504Q160.038 17.1245 159.286 18.8591L162.072 19.8589Q162.559 18.8164 163.747 17.8935Q164.943 16.9707 167.045 16.9707Q169.07 16.9707 170.07 17.9961Q171.07 19.0129 171.07 20.8501L171.07 20.9526Q171.07 21.6618 170.565 21.9524Q170.07 22.2344 168.976 22.354Q167.891 22.4651 166.148 22.6872Q164.823 22.8667 163.507 23.1572Q162.2 23.4477 161.115 24.0373Q160.038 24.6184 159.389 25.6438Q158.739 26.6692 158.739 28.3098Q158.739 30.1726 159.611 31.4885Q160.482 32.7959 161.961 33.488ZM208.162 34.1289Q205.573 34.1289 203.625 32.8984Q201.685 31.6679 200.592 29.4548Q199.506 27.2417 199.506 24.2851Q199.506 21.2944 200.592 19.0727Q201.685 16.8511 203.625 15.6206Q205.573 14.3901 208.162 14.3901Q210.743 14.3901 212.691 15.6206Q214.639 16.8511 215.725 19.0727Q216.81 21.2944 216.81 24.2851Q216.81 27.2417 215.725 29.4548Q214.639 31.6679 212.691 32.8984Q210.743 34.1289 208.162 34.1289ZM224.215 33.7273L224.215 22.2429Q224.215 19.7478 225.6 18.3891Q226.992 17.0219 229.094 17.0219Q231.128 17.0219 232.299 18.2866Q233.469 19.5427 233.469 21.7986L233.469 33.7273L236.4 33.7273L236.4 21.5935Q236.4 17.9448 234.614 16.1675Q232.829 14.3901 229.94 14.3901Q227.77 14.3901 226.403 15.2788Q225.036 16.1675 224.369 17.6201L224.121 17.6201L224.121 14.6379L221.284 14.6379L221.284 33.7273L224.215 33.7273ZM81.4309 14.6379L78.5 14.6379L78.5 33.7273L81.4309 33.7273L81.4309 14.6379ZM110.216 14.6379L107.286 14.6379L107.286 33.7273L110.216 33.7273L110.216 14.6379ZM195.032 14.6379L192.101 14.6379L192.101 33.7273L195.032 33.7273L195.032 14.6379ZM38.0117 29.4634Q36.6018 31.4885 33.9529 31.4885Q32.1157 31.4885 30.8767 30.5144Q29.6463 29.5403 29.0139 27.8825Q28.3902 26.2163 28.3902 24.1826Q28.3902 22.166 29.0054 20.551Q29.6206 18.9275 30.8511 17.979Q32.0901 17.0219 33.9529 17.0219Q36.6445 17.0219 38.0288 19.0044Q39.4216 20.9782 39.4216 24.1826Q39.4216 27.4297 38.0117 29.4634ZM208.162 31.4885Q210.128 31.4885 211.392 30.4887Q212.657 29.4804 213.264 27.8398Q213.879 26.1992 213.879 24.2851Q213.879 22.3711 213.264 20.7219Q212.657 19.0642 211.392 18.0473Q210.128 17.0219 208.162 17.0219Q206.197 17.0219 204.924 18.0473Q203.659 19.0642 203.053 20.7219Q202.446 22.3711 202.446 24.2851Q202.446 26.1992 203.053 27.8398Q203.659 29.4804 204.924 30.4887Q206.197 31.4885 208.162 31.4885ZM168.643 30.8562Q167.447 31.5398 165.703 31.5398Q163.952 31.5398 162.815 30.7622Q161.679 29.9846 161.679 28.4551Q161.679 27.3357 162.277 26.6863Q162.884 26.0368 163.866 25.7121Q164.857 25.3789 166.002 25.2251Q166.472 25.1653 167.233 25.0713Q168.002 24.9773 168.814 24.8491Q169.634 24.7124 170.258 24.5329Q170.89 24.3535 171.07 24.1313L171.07 26.8144Q171.07 28.0107 170.454 29.0959Q169.839 30.1726 168.643 30.8562Z" />
    </g>
    <path d="M0 0L282 0L282 282L0 282L0 0Z" id="Background" fill="none" fill-rule="evenodd" stroke="none" />
    <g clip-path="url(#mask_1)">
      <g id="SvgjsG1014" transform="translate(78 78.6875)">
        <g id="Fragment">
          <path d="M0 0L126.312 0L126.312 126.312L0 126.312L0 0Z" id="Background" fill="none" fill-rule="evenodd" stroke="none" />
          <g clip-path="url(#mask_2)">
            <path d="M0.95175 0.271229L126.285 0.271229L126.285 125.605L0.95175 125.605L0.95175 0.271229Z" id="Rectangle" fill="none" fill-rule="evenodd" stroke="none" />
            <path d="M103.998 7.99098C104.718 6.60546 104.547 4.92423 103.561 3.713C102.576 2.50177 100.965 1.99163 99.4608 2.41463C86.4937 6.06692 63.6184 12.5079 63.6184 12.5079C63.6184 12.5079 40.7431 6.06692 27.775 2.41463C26.272 1.99163 24.6613 2.50177 23.6753 3.713C22.6902 4.92423 22.5179 6.60546 23.2386 7.99098C27.2688 15.7479 33.2457 27.2482 36.615 33.7333C37.2015 34.8613 38.2991 35.6348 39.5583 35.8071C40.8175 35.9805 42.0826 35.531 42.9511 34.6028C49.8151 27.2649 63.6184 12.5079 63.6184 12.5079C63.6184 12.5079 77.4217 27.2649 84.2857 34.6028C85.1542 35.531 86.4193 35.9805 87.6785 35.8071C88.9377 35.6348 90.0354 34.8613 90.6209 33.7333C93.9912 27.2482 99.967 15.7479 103.998 7.99098L103.998 7.99098Z" id="Shape" fill="#565360" fill-rule="evenodd" stroke="none" />
            <path d="M73.4473 28.7493L70.8584 37.3719L56.3785 37.3719L53.7895 28.7493L63.6184 18.2419L73.4473 28.7493L73.4473 28.7493ZM55.883 41.2572L47.5503 106.077C47.4015 107.23 47.7735 108.391 48.5657 109.243C51.1526 112.027 57.154 118.487 60.7485 122.356C61.4897 123.154 62.5296 123.607 63.6184 123.607C64.7073 123.607 65.7461 123.154 66.4874 122.356C70.0829 118.487 76.0842 112.027 78.6712 109.243C79.4633 108.391 79.8344 107.23 79.6865 106.077L71.3538 41.2572C71.1913 41.2778 71.0258 41.2885 70.8584 41.2885L56.3785 41.2885C56.211 41.2885 56.0455 41.2778 55.883 41.2572L55.883 41.2572Z" id="Shape" fill="#565360" fill-rule="evenodd" stroke="none" />
          </g>
        </g>
      </g>
    </g>
  </g>
</svg>