<svg id="SvgjsSvg1088" width="288" height="288" xmlns="http://www.w3.org/2000/svg" version="1.1" xmlns:xlink="http://www.w3.org/1999/xlink" xmlns:svgjs="http://svgjs.com/svgjs"><defs id="SvgjsDefs1089"></defs><g id="SvgjsG1090"><svg xmlns="http://www.w3.org/2000/svg" width="288" height="288" viewBox="0 0 36 36"><g transform="translate(2 -1018.362)" fill="#565360" class="color000 svgShape"><rect style="isolation:auto;mix-blend-mode:normal" width="27" height="3" x="2" y="1036.362" fill="#565360" color="#000" overflow="visible" class="color576d7e svgShape"></rect><rect width="30" height="5" x="1" y="1041.362" fill="#cad1d8" color="#000" overflow="visible" rx="8.187" ry="2.438" style="isolation:auto;mix-blend-mode:normal" class="colorcad1d8 svgShape"></rect><rect width="5" height="11" x="3" y="1032.362" fill="#565360" color="#000" overflow="visible" rx="1" ry="1" style="isolation:auto;mix-blend-mode:normal" class="color576d7e svgShape"></rect><rect style="isolation:auto;mix-blend-mode:normal" width="5" height="11" x="23" y="1032.362" fill="#565360" color="#000" overflow="visible" rx="1" ry="1" class="color576d7e svgShape"></rect><path fill="#565360" fill-rule="evenodd" stroke="#565360" d="m 5.50009,1032.3621 0,11" class="color34485c svgShape colorStroke34485c svgStroke"></path><path fill="none" stroke="#565360" d="m 25.50006,1032.3622 0,11" class="colorStroke34485c svgStroke"></path><rect width="2" height="3" x="1" y="1036.362" fill="#565360" color="#000" overflow="visible" rx="1" ry="1" style="isolation:auto;mix-blend-mode:normal" class="color576d7e svgShape"></rect><rect style="isolation:auto;mix-blend-mode:normal" width="2" height="3" x="28" y="1036.362" fill="#565360" color="#000" overflow="visible" rx="1" ry="1" class="color576d7e svgShape"></rect><path fill="none" stroke="#565360" stroke-linecap="round" stroke-linejoin="round" d="M5.50011 1029.8553l0-2.986M2.52628 1029.8553l-1.02399-2.986M25.50011 1029.8553l0-2.986M28.67812 1029.8553l.82013-2.986" class="colorStroke34485c svgStroke"></path><path style="line-height:normal;text-indent:0;text-align:start;text-decoration-line:none;text-decoration-style:solid;text-decoration-color:#000;text-transform:none;block-progression:tb;isolation:auto;mix-blend-mode:normal" fill="#e9eded" d="m 1.4296875,9.0019531 c -0.97939539,0.046 -1.67219478,1.0808059 -1.34179688,2.0039059 l 1.00781248,2.9375 c 0.122836,0.4075 0.4449278,0.782266 0.8222657,0.947266 0.3773376,0.1649 0.7636268,0.154616 1.0976562,0.04102 0.3340294,-0.1137 0.6453307,-0.340272 0.84375,-0.701172 C 3.949213,14.067068 4.000168,13.87426 4.0195312,13.677738 4.0640692,14.035447 4.22981,14.390385 4.484375,14.619145 4.7842303,14.888541 5.1465198,14.9988 5.4941406,15 L 4,15 c -1.0907031,0 -2,0.9093 -2,2 l 0,2 c -1.09070277,0 -2,0.9093 -2,2 l 0,1 c 0,1.0907 0.90929723,2 2,2 l 0,1.248047 C 1.6284313,25.415147 1.2236576,25.557256 0.92773438,25.785156 0.44623911,26.155956 0,26.712 0,27.4375 l 0,0.125 c 0,0.7883 0.51056573,1.376478 1.0644531,1.767578 0.5538874,0.3912 1.2360689,0.675816 2.0429688,0.916016 C 4.7212216,30.726594 6.8397578,31 9.1875,31 l 13.625,0 c 2.347742,0 4.466278,-0.273406 6.080078,-0.753906 0.8069,-0.2402 1.489081,-0.524816 2.042969,-0.916016 C 31.489434,28.938978 32,28.3508 32,27.5625 l 0,-0.125 C 32,26.5396 31.36499,25.932597 30.701172,25.529297 30.242633,25.250797 29.608394,25.074813 29,24.882812 L 29,24 c 1.090703,0 2,-0.9093 2,-2 l 0,-1 c 0,-1.0907 -0.909297,-2 -2,-2 l 0,-2 c 0,-1.0907 -0.909297,-2 -2,-2 l -1.494141,0 c 0.347621,0 0.709911,-0.111459 1.009766,-0.380859 0.30157,-0.271 0.490317,-0.718472 0.484375,-1.138672 l 0,-2.957031 C 27.01302,9.6897375 26.310246,8.9888531 25.476562,9.0019531 24.660041,9.0149531 23.987244,9.7068375 24,10.523438 l 0,2.957031 c -0.0059,0.4202 0.182805,0.867672 0.484375,1.138672 C 24.78423,14.888541 25.14652,14.9988 25.494141,15 L 24,15 c -1.090703,0 -2,0.9093 -2,2 l 0,2 -13,0 0,-2 C 9,15.9093 8.0907031,15 7,15 L 5.5058594,15 C 5.8534802,15 6.2157697,14.888541 6.515625,14.619141 6.8171951,14.348141 7.0059422,13.900669 7,13.480469 L 7,10.523438 C 7.013024,9.6897375 6.3102459,8.9888531 5.4765625,9.0019531 4.6600415,9.0146531 3.9872443,9.7068375 4,10.523438 l 0,2.707031 C 3.984075,13.144399 3.966017,13.058709 3.935547,12.978516 l -1.0097657,-2.94336 -0.00195,0 C 2.785049,9.6144563 2.4418887,9.3502469 2.0488281,9.1855469 1.8681839,9.0582592 1.6504676,8.9943866 1.4296875,9.0039062 Z m 28.0000005,0 c -0.651311,0.031 -1.215975,0.4881407 -1.38086,1.1191409 l 0.002,-0.01367 -0.818359,2.982422 c -0.112326,0.4023 -0.04474,0.878897 0.173828,1.216797 0.218573,0.3379 0.537636,0.540512 0.873047,0.632812 0.335411,0.092 0.713496,0.08134 1.074219,-0.09766 0.360276,-0.1783 0.661752,-0.550625 0.771484,-0.953125 l 0.816406,-2.970703 C 31.219247,9.9593688 30.428291,8.9561531 29.431641,9.0019531 Z M 5.4921875,10 C 5.7744537,9.9955832 6.0044166,10.225546 6,10.507812 l 0,2.986329 c 0.00956,0.676161 -1.0095626,0.676161 -1,0 L 5,10.507812 C 4.9956794,10.231667 5.2160427,10.004309 5.4921875,10 Z M 25.492188,10 C 25.774454,9.9955835 26.004417,10.225546 26,10.507812 l 0,2.986329 c 0.0096,0.676161 -1.009563,0.676161 -1,0 l 0,-2.986329 C 24.995679,10.231667 25.216043,10.004308 25.492188,10 Z M 1.4765625,10.002 c 0.2243771,-0.010277 0.4280754,0.130315 0.4980469,0.34375 L 3,13.332031 C 3.2161459,13.963541 2.2688803,14.28776 2.0527344,13.65625 L 1.0292969,10.669922 C 0.91608584,10.353544 1.1409116,10.017778 1.4765625,10.001953 Z m 27.9999995,0 c 0.342521,-0.016195 0.599348,0.309319 0.503907,0.638672 L 29.160156,13.627 c -0.177059,0.643271 -1.14197,0.377628 -0.964844,-0.265625 L 29.015625,10.375 c 0.05539,-0.211862 0.242183,-0.363039 0.460937,-0.373047 z M 4,16 7,16 c 0.5540097,0 1,0.446 1,1 l 0,3 15,0 0,-3 c 0,-0.554 0.44599,-1 1,-1 l 3,0 c 0.554009,0 1,0.446 1,1 l 0,3 1,0 c 0.554,0 1,0.446 1,1 l 0,1 c 0,0.554 -0.446,1 -1,1 l -1,0 0,2.564453 c 1.819254,0.446357 3,1.11319 3,1.873047 l 0,0.125 C 31,28.9129 27.3482,30 22.8125,30 L 9.1875,30 C 4.6517999,30 1,28.9129 1,27.5625 l 0,-0.125 C 1,26.828657 1.769102,26.279813 3,25.853516 L 3,23 2,23 C 1.446,23 1,22.554 1,22 l 0,-1 c 0,-0.554 0.446,-1 1,-1 l 1,0 0,-3 c 0,-0.554 0.4459903,-1 1,-1 z m 4,7 0,2.035156 C 8.3907452,25.018246 8.7805176,25 9.1875,25 l 13.625,0 c 0.06426,0 0.123599,0.0054 0.1875,0.0059 L 23,23 Z" color="#000" font-family="sans-serif" font-weight="400" overflow="visible" transform="translate(0 1016.362)" class="colore9eded svgShape"></path></g></svg></g></svg>