<?xml version="1.0" encoding="utf-8"?>
<svg width="128px" height="128px" viewBox="0 0 128 128" version="1.1" xmlns:xlink="http://www.w3.org/1999/xlink" xmlns="http://www.w3.org/2000/svg">
  <defs>
    <path d="M0 0L128 0L128 128L0 128L0 0Z" id="path_1" />
    <clipPath id="mask_1">
      <use xlink:href="#path_1" />
    </clipPath>
  </defs>
  <g id="file">
    <path d="M0 0L128 0L128 128L0 128L0 0Z" id="Background" fill="none" fill-rule="evenodd" stroke="none" />
    <g clip-path="url(#mask_1)">
      <path d="M104 126L24 126C18.5 126 14 121.5 14 116L14 12C14 6.5 18.5 2 24 2L64.7 2C67.4 2 69.9 3 71.8 4.9L111.1 44.2C113 46.1 114 48.6 114 51.3L114 116C114 121.5 109.5 126 104 126L104 126ZM24 6C20.7 6 18 8.7 18 12L18 116C18 119.3 20.7 122 24 122L104 122C107.3 122 110 119.3 110 116L110 51.3C110 49.7 109.4 48.2 108.2 47.1L68.9 7.8C67.8 6.6 66.3 6 64.7 6L24 6L24 6Z" id="Shape" fill="#565360" fill-rule="evenodd" stroke="none" />
      <g id="RFC" fill="#565360" transform="translate(23 42)">
        <path d="M72.4421 18.5455L75.9675 18.5455Q75.4304 15.5669 73.7605 13.4478Q72.1003 11.3189 69.6394 10.1861Q67.1882 9.05327 64.2585 9.05327Q60.5378 9.05327 57.6375 10.8794Q54.7468 12.6958 53.0769 16.0455Q51.4167 19.3951 51.4167 24.0044Q51.4167 28.604 53.0769 31.9537Q54.7468 35.3033 57.6375 37.1294Q60.5378 38.9458 64.2585 38.9458Q67.1882 38.9458 69.6394 37.813Q72.1003 36.6802 73.7605 34.5611Q75.4304 32.4419 75.9675 29.4537L72.4421 29.4537Q72.0125 31.4751 70.8015 32.8521Q69.6003 34.229 67.8914 34.9419Q66.1921 35.6451 64.2585 35.6451Q61.6218 35.6451 59.4832 34.3169Q57.3445 32.979 56.0847 30.3814Q54.825 27.774 54.825 24.0044Q54.825 20.2251 56.0847 17.6275Q57.3445 15.0201 59.4832 13.6919Q61.6218 12.354 64.2585 12.354Q66.1921 12.354 67.8914 13.0669Q69.6003 13.7701 70.8015 15.147Q72.0125 16.524 72.4421 18.5455ZM3.52539 38.5455L3.52539 9.45366L13.3496 9.45366Q16.7578 9.45366 18.9453 10.6158Q21.1328 11.7681 22.1875 13.7896Q23.2422 15.8013 23.2422 18.3794Q23.2422 21.2701 21.9141 23.4283Q20.5859 25.5767 17.8027 26.524L24.375 38.5455L20.2832 38.5455L14.1504 27.1685Q13.7891 27.1783 13.4082 27.1783L7.04102 27.1783L7.04102 38.5455L3.52539 38.5455ZM29.0935 38.5455L29.0935 9.45366L46.5349 9.45366L46.5349 12.5787L32.6091 12.5787L32.6091 22.4126L45.2263 22.4126L45.2263 25.5376L32.6091 25.5376L32.6091 38.5455L29.0935 38.5455ZM7.04102 24.0044L13.291 24.0044Q16.7871 24.0044 18.2812 22.5005Q19.7754 20.9869 19.7754 18.3794Q19.7754 15.7427 18.2715 14.1607Q16.7773 12.5787 13.2422 12.5787L7.04102 12.5787L7.04102 24.0044Z" />
      </g>
    </g>
  </g>
</svg>