<?xml version="1.0" encoding="UTF-8"?>
<svg xmlns="http://www.w3.org/2000/svg" xmlns:xlink="http://www.w3.org/1999/xlink" viewBox="0 0 24 24" width="24px" height="24px">
<g id="surface17013279">
<path style=" stroke:none;fill-rule:nonzero;fill:rgb(60.784316%,34.901962%,71.372551%);fill-opacity:1;" d="M 10.5 1.921875 C 8.734375 1.960938 7.441406 2.5 6.660156 3.527344 C 5.734375 4.742188 5.5625 6.609375 6.140625 9.070312 C 5.945312 9.324219 5.765625 9.730469 5.8125 10.289062 C 5.953125 11.328125 6.347656 11.753906 6.671875 11.929688 C 6.824219 12.753906 7.253906 13.691406 7.679688 14.136719 L 7.679688 15.84375 C 7.371094 16.542969 6.320312 16.976562 5.210938 17.433594 C 3.316406 18.210938 0.960938 19.183594 0.960938 22.078125 L 0.960938 22.558594 L 14.503906 22.558594 L 14.753906 21.601562 L 1.949219 21.601562 C 2.195312 19.710938 3.914062 19.003906 5.578125 18.320312 C 6.582031 17.90625 7.542969 17.507812 8.140625 16.863281 C 8.285156 16.992188 8.457031 17.105469 8.636719 17.195312 C 9.152344 17.460938 9.820312 17.617188 10.558594 17.617188 C 11.304688 17.617188 11.972656 17.449219 12.488281 17.175781 C 12.796875 17.015625 13.074219 16.808594 13.25 16.546875 C 13.4375 16.445312 13.644531 16.378906 13.863281 16.375 L 13.898438 16.371094 C 13.695312 16.210938 13.535156 16.035156 13.441406 15.839844 L 13.441406 14.132812 C 13.847656 13.695312 14.25 12.777344 14.402344 11.941406 C 14.742188 11.773438 15.164062 11.34375 15.261719 10.265625 C 15.308594 9.722656 15.160156 9.324219 14.953125 9.070312 C 15.363281 7.761719 15.71875 5.515625 14.859375 4.089844 C 14.449219 3.414062 13.824219 2.988281 13 2.824219 C 12.535156 2.238281 11.664062 1.921875 10.5 1.921875 Z M 10.511719 2.878906 C 11.417969 2.878906 12.074219 3.109375 12.304688 3.507812 L 12.421875 3.707031 L 12.652344 3.738281 C 13.292969 3.828125 13.742188 4.105469 14.035156 4.589844 C 14.730469 5.738281 14.363281 7.890625 13.949219 9.054688 L 13.796875 9.449219 L 14.175781 9.640625 C 14.21875 9.671875 14.335938 9.835938 14.304688 10.179688 C 14.242188 10.890625 14.015625 11.082031 13.96875 11.089844 L 13.53125 11.089844 L 13.492188 11.523438 C 13.402344 12.433594 12.894531 13.375 12.722656 13.503906 L 12.480469 13.640625 L 12.480469 15.9375 C 12.480469 15.929688 12.390625 16.144531 12.039062 16.328125 C 11.691406 16.511719 11.15625 16.65625 10.558594 16.65625 C 9.957031 16.65625 9.421875 16.519531 9.074219 16.34375 C 8.730469 16.164062 8.640625 15.976562 8.640625 15.9375 L 8.640625 13.921875 L 8.648438 13.644531 L 8.40625 13.507812 C 8.230469 13.382812 7.667969 12.429688 7.582031 11.523438 L 7.574219 11.09375 L 7.140625 11.09375 C 7.070312 11.066406 6.855469 10.839844 6.765625 10.183594 C 6.734375 9.78125 6.9375 9.613281 6.9375 9.613281 L 7.21875 9.425781 L 7.136719 9.097656 C 6.554688 6.800781 6.652344 5.121094 7.421875 4.109375 C 8.019531 3.328125 9.0625 2.914062 10.511719 2.878906 Z M 18.75 13.875 C 18.558594 13.875 18.367188 14.019531 18.269531 14.117188 L 17.117188 17.140625 L 13.902344 17.332031 C 13.710938 17.332031 13.519531 17.476562 13.46875 17.667969 C 13.421875 17.859375 13.46875 18.101562 13.664062 18.195312 L 16.109375 20.214844 L 15.292969 23.332031 C 15.246094 23.527344 15.339844 23.765625 15.484375 23.859375 C 15.582031 23.910156 15.675781 23.957031 15.773438 23.957031 C 15.871094 23.957031 15.964844 23.910156 16.0625 23.859375 L 18.75 22.132812 L 21.4375 23.910156 C 21.582031 24.054688 21.820312 24.003906 21.964844 23.910156 C 22.15625 23.765625 22.207031 23.574219 22.15625 23.382812 L 21.34375 20.261719 L 23.835938 18.246094 C 23.980469 18.101562 24.03125 17.910156 23.980469 17.71875 C 23.933594 17.523438 23.742188 17.382812 23.550781 17.382812 L 20.332031 17.1875 L 19.183594 14.164062 C 19.132812 14.023438 18.941406 13.875 18.75 13.875 Z M 18.75 15.703125 L 19.519531 17.859375 C 19.613281 18.003906 19.757812 18.148438 19.949219 18.148438 L 22.253906 18.292969 L 20.476562 19.734375 C 20.332031 19.828125 20.285156 20.019531 20.335938 20.214844 L 20.910156 22.421875 L 18.988281 21.171875 C 18.941406 21.125 18.847656 21.078125 18.75 21.078125 C 18.652344 21.078125 18.558594 21.125 18.460938 21.125 L 16.542969 22.375 L 17.117188 20.164062 C 17.164062 20.023438 17.117188 19.78125 16.972656 19.6875 L 15.199219 18.246094 L 17.503906 18.148438 C 17.695312 18.101562 17.839844 18.003906 17.933594 17.8125 Z M 18.75 15.703125 "/>
</g>
</svg>
