<?xml version="1.0" encoding="UTF-8"?>
<svg xmlns="http://www.w3.org/2000/svg" xmlns:xlink="http://www.w3.org/1999/xlink" viewBox="0 0 24 24" width="24px" height="24px">
<g id="surface17009164">
<path style=" stroke:none;fill-rule:nonzero;fill:rgb(45.09804%,40.392157%,94.117647%);fill-opacity:1;" d="M 1.441406 1.921875 L 1.441406 12.480469 L 2.878906 12.480469 L 2.878906 22.078125 L 21.121094 22.078125 L 21.121094 12.480469 L 22.558594 12.480469 L 22.558594 1.921875 Z M 2.398438 2.878906 L 21.601562 2.878906 L 21.601562 11.519531 L 20.71875 11.519531 C 20.667969 11.511719 20.617188 11.511719 20.5625 11.519531 L 15.625 11.519531 L 12 5.824219 L 8.375 11.519531 L 3.433594 11.519531 C 3.40625 11.515625 3.378906 11.511719 3.351562 11.511719 C 3.328125 11.515625 3.304688 11.515625 3.28125 11.519531 L 2.398438 11.519531 Z M 12 7.613281 L 15.097656 12.480469 L 20.160156 12.480469 L 20.160156 21.121094 L 14.398438 21.121094 L 14.398438 16.800781 C 14.398438 15.480469 13.320312 14.398438 12 14.398438 C 10.679688 14.398438 9.601562 15.480469 9.601562 16.800781 L 9.601562 21.121094 L 3.839844 21.121094 L 3.839844 12.480469 L 8.902344 12.480469 Z M 4.800781 14.398438 L 4.800781 18.71875 L 8.640625 18.71875 L 8.640625 14.398438 Z M 15.359375 14.398438 L 15.359375 18.71875 L 19.199219 18.71875 L 19.199219 14.398438 Z M 5.761719 15.359375 L 7.679688 15.359375 L 7.679688 17.761719 L 5.761719 17.761719 Z M 12 15.359375 C 12.800781 15.359375 13.441406 16 13.441406 16.800781 L 13.441406 21.121094 L 10.558594 21.121094 L 10.558594 16.800781 C 10.558594 16 11.199219 15.359375 12 15.359375 Z M 16.320312 15.359375 L 18.238281 15.359375 L 18.238281 17.761719 L 16.320312 17.761719 Z M 16.320312 15.359375 "/>
</g>
</svg>
