<svg xmlns="http://www.w3.org/2000/svg" xmlns:xlink="http://www.w3.org/1999/xlink" width="32" height="32" viewBox="0 0 32 32"><defs><linearGradient id="a"><stop offset="0" stop-color="#ff1679"/><stop offset="1" stop-color="#ff770b"/></linearGradient><linearGradient id="b" x1="992.183" x2="1019.298" y1="516.081" y2="545.959" gradientTransform="translate(-1024.137 499.682) scale(1.02524)" gradientUnits="userSpaceOnUse" xlink:href="#a"/></defs><g fill="#fff" transform="translate(9 -1028.362)"><rect width="32" height="32" x="-9" y="1028.362" fill="url(#b)" rx="6.763" ry="6.763"/><path style="text-indent:0;text-align:start;line-height:normal;text-transform:none;block-progression:tb" d="M 10.65625 10 C 10.414759 10.013 10.217388 10.1975 10.1875 10.4375 C 9.7984112 13.5169 9.958044 16.01155 10.84375 18.21875 C 11.729455 20.42605 13.343708 22.31405 15.71875 24.15625 C 15.899183 24.29625 16.132067 24.29625 16.3125 24.15625 C 18.689418 22.31255 20.284218 20.42815 21.15625 18.21875 C 22.028282 16.00925 22.181995 13.4984 21.84375 10.4375 C 21.80306 10.0759 21.405929 9.8754 21.09375 10.0625 C 19.221666 11.1918 17.491512 11.1628 16.34375 10.125 C 16.153443 9.9533 15.877807 9.9533 15.6875 10.125 C 14.539741 11.1636 12.809566 11.1926 10.9375 10.0625 C 10.851285 10.0095 10.757054 9.994 10.65625 10 z M 16.03125 11.0625 C 17.351521 12.0341 19.117072 11.96695 20.875 11.15625 C 21.109202 13.81415 20.95284 15.98375 20.21875 17.84375 C 19.468641 19.74425 18.104937 21.3893 16.03125 23.0625 C 13.954245 21.3889 12.541732 19.73895 11.78125 17.84375 C 11.035785 15.98595 10.881957 13.82785 11.15625 11.15625 C 12.91548 11.96925 14.709613 12.0339 16.03125 11.0625 z M 14.5 15.0625 C 14.050598 15.0626 13.833319 15.6249 14.15625 15.9375 L 15.28125 17.0625 L 14.15625 18.21875 C 13.665423 18.69005 14.403746 19.39715 14.875 18.90625 L 16 17.78125 L 17.15625 18.90625 C 17.627504 19.39715 18.334577 18.69005 17.84375 18.21875 L 16.71875 17.0625 L 17.84375 15.9375 C 18.172598 15.6196 17.957092 15.048 17.5 15.0625 C 17.37024 15.0625 17.246969 15.12635 17.15625 15.21875 L 16 16.375 L 14.875 15.21875 C 14.780464 15.12175 14.635196 15.062 14.5 15.0625 z " color="#000" font-family="sans-serif" font-weight="400" overflow="visible" transform="translate(-9 1028.362)"/></g></svg>