<svg xmlns="http://www.w3.org/2000/svg" xmlns:xlink="http://www.w3.org/1999/xlink" width="32" height="32" viewBox="0 0 32 32"><defs><linearGradient id="a"><stop offset="0" stop-color="#16ff6a"/><stop offset="1" stop-color="#0090a5"/></linearGradient><linearGradient id="b" x1="1073.403" x2="1097.116" y1="516.451" y2="544.308" gradientTransform="translate(-1104.915 499.682) scale(1.02524)" gradientUnits="userSpaceOnUse" xlink:href="#a"/></defs><g fill="#fff" transform="translate(9 -1028.362)"><rect width="32" height="32" x="-9" y="1028.362" fill="url(#b)" rx="6.763" ry="6.763"/><path style="text-indent:0;text-align:start;line-height:normal;text-transform:none;block-progression:tb" d="m 1.6606862,1038.4472 c -0.2414912,0.013 -0.4388619,0.1975 -0.46875,0.4375 -0.3890888,3.0794 -0.2235966,5.5877 0.6621094,7.7949 0.885705,2.2073 2.4823799,4.0817 4.8574219,5.9239 0.1804328,0.14 0.4328484,0.14 0.6132813,0 2.3769182,-1.8437 3.9482802,-3.7281 4.8203122,-5.9375 0.872032,-2.2095 1.035511,-4.7126 0.697266,-7.7735 -0.04069,-0.3616 -0.441727,-0.5601 -0.753906,-0.373 -1.872084,1.1293 -3.5885665,1.0948 -4.7363285,0.057 -0.1903066,-0.1717 -0.4796153,-0.1717 -0.6699219,0 -1.147759,1.0386 -2.862309,1.0731 -4.734375,-0.057 -0.086215,-0.053 -0.1863057,-0.078 -0.2871094,-0.072 z m 5.3554688,1.0742 c 1.320271,0.9716 3.091681,0.8887 4.849609,0.078 0.234202,2.6579 0.0837,4.8393 -0.65039,6.6993 -0.750109,1.9005 -2.125532,3.5494 -4.199219,5.2226 -2.077005,-1.6736 -3.473893,-3.3196 -4.234375,-5.2148 -0.745465,-1.8578 -0.8934336,-4.0374 -0.6191406,-6.709 1.75923,0.813 3.5318786,0.8954 4.8535156,-0.076 z m 2.216797,3.9258 a 0.50005,0.50005 0 0 0 -0.3437501,0.1523 l -2.6386719,2.6387 -1.1386719,-1.1387 a 0.50005,0.50005 0 1 0 -0.7070312,0.7071 l 1.4921875,1.4941 a 0.50005,0.50005 0 0 0 0.7089844,0 l 2.9902342,-2.9961 a 0.50005,0.50005 0 0 0 -0.363281,-0.8574 z" color="#000" font-family="sans-serif" font-weight="400" overflow="visible"/></g></svg>