<?xml version="1.0" encoding="utf-8"?>
<svg width="32px" height="32px" viewBox="0 0 32 32" version="1.1" xmlns:xlink="http://www.w3.org/1999/xlink" xmlns="http://www.w3.org/2000/svg">
  <defs>
    <path d="M0 0L31.891 0L31.891 31.891L0 31.891L0 0Z" id="path_1" />
    <clipPath id="mask_1">
      <use xlink:href="#path_1" />
    </clipPath>
  </defs>
  <g id="rating-graphic-svgrepo-com">
    <path d="M0 0L31.891 0L31.891 31.891L0 31.891L0 0Z" id="Background" fill="none" fill-rule="evenodd" stroke="none" />
    <g clip-path="url(#mask_1)">
      <g id="Group" transform="translate(0 7.8269987)">
        <path d="M28.096 0.00100183C25.995 0.00100183 24.292 1.703 24.292 3.802C24.292 4.054 24.317 4.301 24.366 4.54L19.56 8.868C19.153 8.719 18.71 8.637 18.248 8.637C18.072 8.637 17.898 8.649 17.728 8.669L15.002 5.028C15.133 4.643 15.203 4.23 15.203 3.801C15.203 1.701 13.501 0 11.403 0C9.305 0 7.603 1.702 7.603 3.801C7.603 4.286 7.692 4.749 7.859 5.176L4.731 8.748C4.432 8.674 4.122 8.635 3.801 8.635C1.703 8.635 0 10.336 0 12.436C0 14.537 1.703 16.237 3.801 16.237C5.901 16.237 7.603 14.537 7.603 12.436C7.603 12.117 7.563 11.807 7.489 11.51L10.935 7.574C11.088 7.593 11.245 7.603 11.403 7.603C11.616 7.603 11.824 7.585 12.026 7.552L14.686 11.103C14.53 11.517 14.446 11.966 14.446 12.435C14.446 14.536 16.148 16.236 18.245 16.236C20.346 16.236 22.047 14.536 22.047 12.435C22.047 12.251 22.034 12.073 22.01 11.896L26.965 7.434C27.319 7.544 27.696 7.603 28.09 7.603C30.188 7.603 31.891 5.901 31.891 3.802C31.895 1.703 30.193 0.00100183 28.096 0.00100183L28.096 0.00100183Z" id="Shape" fill="#6E6B7B" fill-rule="evenodd" stroke="none" />
      </g>
    </g>
  </g>
</svg>