<?xml version="1.0" encoding="utf-8"?>
<svg width="299px" height="299px" viewBox="0 0 299 299" version="1.1" xmlns:xlink="http://www.w3.org/1999/xlink" xmlns="http://www.w3.org/2000/svg">
  <defs>
    <path d="M0 0L298.141 0L298.141 298.141L0 298.141L0 0Z" id="path_1" />
    <clipPath id="mask_1">
      <use xlink:href="#path_1" />
    </clipPath>
  </defs>
  <g id="social-svgrepo-com">
    <path d="M0 0L298.141 0L298.141 298.141L0 298.141L0 0Z" id="Background" fill="none" fill-rule="evenodd" stroke="none" />
    <g clip-path="url(#mask_1)">
      <path d="M297.297 120.952L291.118 89.94C289.055 79.619 279.218 71.534 268.72 71.534L255.36 71.534C255.344 71.534 255.33 71.536 255.314 71.537C267.483 65.244 275.83 52.519 275.83 37.869C275.83 16.988 258.893 0 238.074 0C217.252 0 200.311 16.988 200.311 37.869C200.311 52.519 208.659 65.244 220.831 71.537C220.813 71.537 220.797 71.534 220.78 71.534L207.418 71.534C196.924 71.534 187.086 79.619 185.02 89.945L183.579 97.181L114.56 97.181L113.117 89.939C111.053 79.619 101.216 71.534 90.721 71.534L77.359 71.534C77.342 71.534 77.327 71.537 77.31 71.537C89.48 65.244 97.828 52.519 97.828 37.869C97.828 16.988 80.89 0 60.07 0C39.251 0 22.312 16.988 22.312 37.869C22.312 52.519 30.659 65.244 42.83 71.537C42.814 71.536 42.799 71.534 42.783 71.534L29.42 71.534C18.926 71.534 9.089 79.619 7.024 89.944L0.844004 120.952C0.406004 123.155 0.977004 125.438 2.401 127.175C3.826 128.911 5.954 129.918 8.2 129.918L45.339 129.918L100.082 249.242C98.104 251.871 96.677 254.904 96.028 258.164L89.847 289.175C89.409 291.377 89.98 293.661 91.404 295.398C92.829 297.134 94.957 298.141 97.203 298.141L200.939 298.141C203.185 298.141 205.313 297.134 206.738 295.398C208.162 293.662 208.733 291.377 208.295 289.175L202.115 258.167C201.467 254.907 200.039 251.873 198.062 249.244L252.805 129.918L289.942 129.918C292.188 129.918 294.316 128.911 295.74 127.175C297.164 125.438 297.735 123.155 297.297 120.952L297.297 120.952ZM238.074 15C250.622 15 260.83 25.259 260.83 37.869C260.83 50.475 250.622 60.731 238.074 60.731C225.522 60.731 215.311 50.475 215.311 37.869C215.311 25.259 225.522 15 238.074 15L238.074 15ZM238.074 75.731C242.243 75.731 246.252 75.04 250.006 73.783L238.073 85.762L226.134 73.78C229.89 75.039 233.901 75.731 238.074 75.731L238.074 75.731ZM60.07 15C72.619 15 82.828 25.259 82.828 37.869C82.828 50.475 72.619 60.731 60.07 60.731C47.521 60.731 37.312 50.475 37.312 37.869C37.312 25.259 47.521 15 60.07 15L60.07 15ZM60.07 75.731C64.241 75.731 68.252 75.039 72.006 73.781L60.07 85.763L48.137 73.783C51.892 75.04 55.9 75.731 60.07 75.731L60.07 75.731ZM21.733 92.881C22.397 89.56 26.061 86.534 29.42 86.534L39.668 86.534L54.757 101.682C56.164 103.095 58.076 103.889 60.07 103.889C62.064 103.889 63.976 103.095 65.384 101.682L80.475 86.534L90.723 86.534C94.081 86.534 97.745 89.559 98.409 92.876L102.802 114.918L17.342 114.918L21.733 92.881L21.733 92.881ZM106.345 283.141L110.74 261.093C111.398 257.779 115.06 254.76 118.423 254.76L128.67 254.76L143.758 269.904C145.165 271.317 147.077 272.111 149.071 272.111C151.065 272.111 152.976 271.317 154.384 269.905L169.474 254.76L179.72 254.76C183.082 254.76 186.744 257.779 187.404 261.096L191.797 283.141L106.345 283.141L106.345 283.141ZM149.07 228.957C136.523 228.957 126.315 218.698 126.315 206.089C126.315 193.481 136.523 183.223 149.07 183.223C161.618 183.223 171.827 193.481 171.827 206.089C171.827 218.698 161.618 228.957 149.07 228.957L149.07 228.957ZM149.07 243.957C153.24 243.957 157.251 243.266 161.005 242.008L149.07 253.985L137.138 242.008C140.892 243.266 144.9 243.957 149.07 243.957L149.07 243.957ZM185.533 240.581C183.65 240.047 181.696 239.76 179.719 239.76L166.359 239.76C166.342 239.76 166.327 239.762 166.31 239.762C178.481 233.469 186.828 220.742 186.828 206.089C186.828 185.209 169.89 168.223 149.071 168.223C128.253 168.223 111.316 185.209 111.316 206.089C111.316 220.742 119.663 233.469 131.833 239.762C131.817 239.762 131.801 239.76 131.785 239.76L118.423 239.76C116.446 239.76 114.492 240.047 112.61 240.581L61.84 129.918L111.943 129.918C114.189 129.918 116.317 128.911 117.742 127.175C119.166 125.439 119.737 123.155 119.299 120.952L117.551 112.181L180.593 112.181L178.846 120.952C178.407 123.154 178.979 125.437 180.404 127.174C181.828 128.91 183.956 129.917 186.202 129.917L236.304 129.917L185.533 240.581L185.533 240.581ZM195.342 114.918L199.732 92.881C200.396 89.56 204.06 86.534 207.42 86.534L217.668 86.534L232.763 101.683C234.17 103.095 236.082 103.889 238.076 103.889C240.07 103.889 241.981 103.094 243.389 101.682L258.477 86.534L268.722 86.534C272.082 86.534 275.746 89.558 276.41 92.876L280.802 114.918L195.342 114.918L195.342 114.918Z" id="Shape" fill="#6E6B7B" fill-rule="evenodd" stroke="none" />
    </g>
  </g>
</svg>