<?xml version="1.0" encoding="utf-8"?>
<svg width="76px" height="76px" viewBox="0 0 76 76" version="1.1" xmlns:xlink="http://www.w3.org/1999/xlink" xmlns="http://www.w3.org/2000/svg">
  <defs>
    <path d="M0 0L76 0L76 76L0 76L0 0Z" id="path_1" />
    <clipPath id="mask_1">
      <use xlink:href="#path_1" />
    </clipPath>
  </defs>
  <g id="train-track-svgrepo-com">
    <path d="M0 0L76 0L76 76L0 76L0 0Z" id="Background" fill="none" fill-rule="evenodd" stroke="none" />
    <g clip-path="url(#mask_1)">
      <path d="M20.5833 54.2292L21.8333 50.6667L19 50.6667L20.5833 46.3122L23.3612 46.3122L24.4722 43.1459L21.7708 43.1458L22.9583 39.5833L25.7222 39.5833L26.9722 36.0208L24.9375 36.0208L26.5208 33.25L27.9444 33.25L28.9166 30.4792L26.9167 30.4792L28.5 28.5L29.611 28.5L31.1388 24.1458L34.8333 24.1458L33.6875 28.5L42.3125 28.5L41.1667 24.1458L44.8612 24.1458L46.389 28.5L47.5 28.5L49.0833 30.4792L47.0834 30.4792L48.0556 33.25L49.4792 33.25L51.0625 36.0208L49.0279 36.0208L50.2778 39.5833L52.6458 39.5833L53.8333 43.1462L51.5279 43.1462L52.6388 46.3122L55.4166 46.3122L57 50.6667L54.1667 50.6667L55.4167 54.2292L49.0833 54.2292L48.1458 50.6667L27.8542 50.6667L26.9167 54.2292L20.5833 54.2292L20.5833 54.2292ZM32.4375 33.25L43.5625 33.25L42.8333 30.4792L33.1666 30.4792L32.4375 33.25L32.4375 33.25ZM30.7708 39.5833L45.2291 39.5833L44.2916 36.0209L31.7083 36.0209L30.7708 39.5833L30.7708 39.5833ZM29.0001 46.3122L46.9999 46.3122L46.1667 43.1461L29.8333 43.1459L29.0001 46.3122L29.0001 46.3122Z" id="Shape" fill="#6E6B7B" fill-rule="evenodd" stroke="none" />
    </g>
  </g>
</svg>