<?xml version="1.0" encoding="utf-8"?>
<svg width="512px" height="512px" viewBox="0 0 512 512" version="1.1" xmlns:xlink="http://www.w3.org/1999/xlink" xmlns="http://www.w3.org/2000/svg">
  <defs>
    <path d="M0 0L511.999 0L511.999 511.999L0 511.999L0 0Z" id="path_1" />
    <clipPath id="mask_1">
      <use xlink:href="#path_1" />
    </clipPath>
  </defs>
  <g id="welcome-svgrepo-com">
    <path d="M0 0L511.999 0L511.999 511.999L0 511.999L0 0Z" id="Background" fill="none" fill-rule="evenodd" stroke="none" />
    <g clip-path="url(#mask_1)">
      <g id="Group" transform="translate(0 29.359985)">
        <g id="Group">
          <g id="Group">
            <path d="M314.11 172.715C309.494 172.715 306.774 175.27 306.774 180.958L306.774 202.8C306.774 208.486 309.494 211.041 314.11 211.041C318.726 211.041 321.527 208.486 321.527 202.8L321.527 180.958C321.526 175.27 318.726 172.715 314.11 172.715L314.11 172.715Z" id="Shape" fill="#565360" fill-rule="evenodd" stroke="none" />
            <path d="M466.467 57.957L452.768 57.957C452.768 20.74 426.745 0 399.104 0C371.836 0 345.44 20.322 345.44 57.957L166.56 57.957C166.56 20.74 140.537 0 112.896 0C85.628 0 59.232 20.322 59.232 57.957L45.532 57.957C20.426 57.957 0 78.383 0 103.49L0 288.536C0 313.643 20.426 334.069 45.533 334.069L59.232 334.069L59.232 435.165C59.232 445.942 67.969 454.679 78.746 454.679L147.045 454.679C157.822 454.679 166.559 445.942 166.559 435.165L166.559 334.069L345.439 334.069L345.439 435.165C345.439 445.942 354.176 454.679 364.953 454.679L433.252 454.679C444.029 454.679 452.766 445.942 452.766 435.165L452.766 334.069L466.465 334.069C491.572 334.069 511.998 313.643 511.998 288.536L511.998 103.49C512 78.383 491.573 57.957 466.467 57.957L466.467 57.957ZM127.531 57.957L98.26 57.957C98.26 32.639 127.531 32.294 127.531 57.957L127.531 57.957ZM127.531 415.651L98.26 415.651L98.26 334.069L127.531 334.069L127.531 415.651L127.531 415.651ZM132.934 167.689L116.533 217.965C114.497 223.9 100.974 223.456 99.718 217.965L95.433 198.431L91.146 217.965C89.872 223.534 76.171 223.819 74.333 217.965L57.931 167.689C56.233 162.608 68.767 158.846 70.212 163.898L82.74 206.18L89.251 178.322C90.249 173.829 100.617 173.832 101.614 178.322L108.125 206.18L120.653 163.898C122.091 158.858 134.612 162.588 132.934 167.689L132.934 167.689ZM169.617 186.645C174.7 186.645 174.857 196.536 169.617 196.536L157.254 196.536L157.254 210.548L179.343 210.548C184.439 210.548 184.598 221.757 179.343 221.757L150.002 221.757C147.2 221.757 144.396 220.438 144.396 217.801L144.396 165.464C144.396 162.827 147.198 161.508 150.002 161.508L179.343 161.508C184.601 161.508 184.436 172.717 179.343 172.717L157.254 172.717L157.254 186.645L169.617 186.645L169.617 186.645ZM227.066 221.756L201.021 221.756C198.219 221.756 195.415 220.437 195.415 217.8L195.415 165.38C195.415 162.66 198.63 161.507 201.843 161.507C205.059 161.507 208.272 162.661 208.272 165.38L208.272 210.546L227.063 210.546C232.013 210.547 232.013 221.756 227.066 221.756L227.066 221.756ZM261.357 211.041C267.95 211.041 268.364 206.014 268.61 202.799C268.857 199.75 271.661 198.925 274.957 198.925C279.408 198.925 281.468 200.079 281.468 205.025C281.468 226.8 241 230.523 241 202.8L241 180.959C241 153.175 281.468 157.303 281.468 177.91C281.468 182.855 279.407 184.009 275.04 184.009C271.578 184.009 268.775 183.102 268.611 180.136C268.528 177.993 268.282 172.718 261.276 172.718C256.578 172.718 253.858 175.355 253.858 180.961L253.858 202.802C253.857 208.404 256.577 211.041 261.357 211.041L261.357 211.041ZM334.385 202.8C334.385 216.975 325.483 222.25 314.11 222.25C302.736 222.25 293.915 216.975 293.915 202.8L293.915 180.958C293.915 166.782 302.734 161.506 314.11 161.506C325.483 161.506 334.385 166.781 334.385 180.958L334.385 202.8L334.385 202.8ZM369.912 200.41L362.083 186.068L362.083 217.801C362.083 223.076 349.224 223.076 349.224 217.801L349.224 167.936C349.224 163.238 352.439 161.508 355.653 161.508C360.267 161.508 362.246 162.002 365.625 167.936L374.115 182.772L382.604 167.936C385.984 162.001 387.96 161.508 392.577 161.508C395.872 161.508 399.005 163.24 399.005 167.936L399.005 217.801C399.005 223.076 386.146 223.076 386.146 217.801L386.146 186.893L378.234 200.41C376.395 203.526 371.644 203.73 369.912 200.41L369.912 200.41ZM413.739 415.651L384.468 415.651L384.468 334.069L413.739 334.069L413.739 415.651L413.739 415.651ZM384.467 57.957C384.467 32.639 413.738 32.295 413.738 57.957L384.467 57.957L384.467 57.957ZM439.726 186.645C444.809 186.645 444.966 196.536 439.726 196.536L427.363 196.536L427.363 210.548L449.452 210.548C454.548 210.548 454.706 221.757 449.452 221.757L420.111 221.757C417.309 221.757 414.505 220.438 414.505 217.801L414.505 165.464C414.505 162.827 417.307 161.508 420.111 161.508L449.452 161.508C454.708 161.508 454.548 172.717 449.452 172.717L427.363 172.717L427.363 186.645L439.726 186.645L439.726 186.645Z" id="Shape" fill="#565360" fill-rule="evenodd" stroke="none" />
          </g>
        </g>
      </g>
    </g>
  </g>
</svg>