<?xml version="1.0" encoding="utf-8"?>
<!-- Generator: Adobe Illustrator 24.2.0, SVG Export Plug-In . SVG Version: 6.00 Build 0)  -->
<svg version="1.1" id="Layer_1" xmlns="http://www.w3.org/2000/svg" xmlns:xlink="http://www.w3.org/1999/xlink" x="0px" y="0px"
	 viewBox="0 0 6615.8 1528.4" style="enable-background:new 0 0 6615.8 1528.4;" xml:space="preserve">
<style type="text/css">
	.st0{fill:#3A3735;}
	.st1{fill:#F3C538;}
	.st2{fill:#419C47;}
	.st3{fill:#46A0D4;}
	.st4{fill:#C33C52;}
	.st5{fill:#DB682C;}
</style>
<g>
	<path class="st0" d="M6057,1228.3h-675.9c-119.8,0-217.9-98-217.9-217.9V527.5c0-119.8,98-217.9,217.9-217.9H6057
		c119.8,0,217.9,98,217.9,217.9v482.9C6274.8,1130.2,6176.8,1228.3,6057,1228.3z"/>
	<g>
		<path class="st1" d="M881.3,32.7l45.1,7.6c10,1.7,18.2,8.9,21.2,18.6l114.7,373.7c3.5,11.3,13.9,19,25.7,18.9l338.3-0.7
			c9.7,0,18.6,5.2,23.4,13.6l16.6,29.3c10.1,17.8-2.7,40-23.2,40.1l-409.1,1.3c-12,0-22.6-7.9-25.9-19.4l-79.8-278.9
			c-7.2-25.3-42.9-26.1-51.2-1.1L707.9,741.2c-5.8,17.4-27,24-41.7,12.8L524.7,646.4c-20.6-15.7-9.2-48.6,16.7-48.2l107.9,1.8
			c11.7,0.2,22.2-7.2,25.9-18.4l176.2-531C855.5,38.1,868.2,30.5,881.3,32.7z"/>
		<path class="st2" d="M1570.8,622.1l6.5,45.3c1.4,10-2.9,20.1-11.3,25.8L1244.8,916c-9.7,6.7-13.9,19-10.3,30.2l103.4,322.1
			c3,9.2,0.7,19.3-5.8,26.4l-22.8,24.7c-13.9,15.1-38.9,9.6-45.2-10l-125.5-389.4c-3.7-11.4,0.7-23.9,10.7-30.6l241.5-160.7
			c21.9-14.6,11.9-48.8-14.5-49.1L843.1,672c-18.4-0.3-31-18.5-24.9-35.8l59.5-167.5c8.7-24.4,43.5-23.6,51,1.3l31.1,103.4
			c3.4,11.2,13.6,19,25.4,19.1l559.4,6.6C1557.8,599.2,1568.9,609,1570.8,622.1z"/>
		<path class="st3" d="M1224.9,1452.5l-40.7,20.9c-9,4.6-19.9,3.8-28.1-2.2l-315.2-231.2c-9.5-7-22.5-6.9-31.9,0.1l-270.9,202.6
			c-7.7,5.8-18,7-26.9,3.1l-30.8-13.5c-18.8-8.3-21.7-33.7-5.3-46l327.3-245.4c9.6-7.2,22.8-7.1,32.4,0.1l230.6,176.1
			c20.9,16,50-4.6,41.8-29.7L940.8,780.7c-5.7-17.5,7.4-35.4,25.7-35.2l177.8,1.8c25.9,0.3,36.4,33.5,15.4,48.6l-87.6,63
			c-9.5,6.8-13.5,19.1-9.8,30.2l175.9,531.1C1242.3,1432.8,1236.7,1446.5,1224.9,1452.5z"/>
		<path class="st4" d="M322.6,1388.6l-32.5-32.2c-7.2-7.1-9.8-17.7-6.6-27.4l121.4-371.6c3.7-11.2-0.4-23.5-10.1-30.3l-277-194.2
			c-7.9-5.6-12.2-14.9-11.3-24.6l3.3-33.5c2-20.4,25.2-31.1,42.1-19.4L487.1,890c9.8,6.9,13.9,19.5,10,30.8l-95.4,274
			c-8.7,24.9,20,46,41.2,30.4l429.5-316c14.8-10.9,35.9-4,41.5,13.5l53.8,169.4c7.8,24.7-20.4,45-41.4,29.8l-87.2-63.6
			c-9.5-6.9-22.3-6.9-31.8,0.1l-449.8,332.7C346.8,1399,332,1397.9,322.6,1388.6z"/>
		<path class="st5" d="M107.9,505.9l20.4-40.9c4.5-9.1,13.8-14.8,23.9-14.9l390.9-0.8c11.8,0,22.2-7.8,25.6-19.1l98-323.8
			c2.8-9.3,10.4-16.3,19.8-18.4l32.8-7.4c20-4.5,37.5,14.3,31.6,33.9l-118,391.7c-3.5,11.5-14.1,19.3-26.1,19.1l-290.1-5
			c-26.3-0.5-37.5,33.4-16,48.7L735,878.3c15,10.7,15,32.9,0.1,43.6l-144.2,104c-21,15.2-49.2-5.3-41.2-30L583,893.2
			c3.6-11.2-0.5-23.4-10-30.1L116.4,539.7C105.6,532.1,102,517.7,107.9,505.9z"/>
	</g>
	<g>
		<path class="st0" d="M2124.4,755.5l-209.6-48.8c-52.7-12.9-89.5-59.8-89.5-114.1c0-64.6,52.8-117.1,117.6-117.1h42.6
			c90.8,0,175.9,35.1,239.6,98.9c0.5,0.5,1.1,0.8,1.8,0.8c0.8,0.2,1.4-0.3,1.8-0.8l16.9-17.5l96.6-96.6c0.5-0.5,0.8-1.1,0.8-1.8
			c0-0.7-0.3-1.3-0.8-1.8c-94.9-94.9-220.9-147.2-354.7-147.2c-0.7,0-1.3,0-2,0h-42.6c-156.3,0-283.5,127-283.5,283
			c0,132.6,89.9,246,218.8,275.8l209.5,49.3c52.4,12.8,89,59.5,89,113.6c0,64.9-52.5,117.6-117.1,117.6h-42.6
			c-90.8,0-175.8-35.1-239.6-98.9c-0.5-0.5-1.1-0.8-1.8-0.8c-0.6,0-1.3,0.3-1.8,0.8l-26.2,26.7l-87.3,87.3c-0.5,0.5-0.8,1.1-0.8,1.8
			c0.1,0.8,0.4,1.4,0.9,1.9v0c94.9,95,220.8,147.2,354.7,147.2c0.7,0,1.3,0,2,0h42.6c156.3,0,283.5-127.2,283.5-283.5
			C2343.1,899.3,2253.2,785.9,2124.4,755.5z"/>
		<path class="st0" d="M2824,449.5l-34.9-92.9l-16.4-45.3c-0.4-1.1-1.3-1.7-2.4-1.7h-69.3c-1.1,0-2.1,0.7-2.4,1.7l-369.8,1000
			c-0.3,0.8-0.2,1.7,0.3,2.4c0.5,0.7,1.2,1.1,2.1,1.1h171.6c1.1,0,2.1-0.7,2.4-1.7l73.9-199.1h313.8l73.3,199.1
			c0.4,1,1.3,1.7,2.4,1.7h171.6c0.9,0,1.6-0.4,2.1-1.1c0.5-0.7,0.6-1.6,0.3-2.4L2824,449.5z M2640.5,947.9l95.5-258.2l95.4,258.2
			H2640.5z"/>
		<path class="st0" d="M4041.9,671.7c0-199.7-162.5-362.1-362.1-362.1h-448.4c-1.4,0-2.6,1.1-2.6,2.6v1000c0,1.4,1.1,2.6,2.6,2.6
			h160.8v0.1c1.4,0,2.6-1.1,2.6-2.6v-278.9h248.6c14.5,0,29,5.9,39.8,16.2l198.6,199.1c0.1,0.5,0.4,0.9,0.7,1.2
			c41.9,41.9,97.6,65,156.9,65c1.4,0,2.6-1.1,2.6-2.6v-160.8c0-1.4-1.1-2.6-2.6-2.6c-14.4,0-29-5.9-39.8-16.2l-144-145
			C3970.6,924,4041.9,803.3,4041.9,671.7z M3680,867.3h-285.1V475.4H3680c107.9,0,195.7,88,195.7,196.2
			C3875.7,779.5,3787.9,867.3,3680,867.3z"/>
		<path class="st0" d="M4564.3,309.7h-448.4c-1.4,0-2.6,1.1-2.6,2.6v1000c0,1.4,1.1,2.6,2.6,2.6h160.8c1.4,0,2.6-1.1,2.6-2.6v-278.9
			h285.1c199.6,0,362.1-162.2,362.1-361.6C4926.4,472.1,4764,309.7,4564.3,309.7z M4564.5,867.3h-285.1V475.4h285.1
			c107.9,0,195.7,88,195.7,196.2C4760.2,779.5,4672.4,867.3,4564.5,867.3z"/>
	</g>
	<g>
		<path class="st1" d="M5652.2,767.9c-13.2-11.2-28.6-19.9-46.3-26.2c22.3-9.7,40-26.2,53.2-49.3c13.2-23.2,19.7-52.2,19.7-87.1
			c0-40.6-8.3-71.8-24.9-93.5c-16.6-21.7-38.1-36.8-64.4-45c-26.3-8.3-54.1-12.4-83.2-12.4h-166.5c-12,0-23.2,3-33.5,9
			c-10.3,6-15.4,15-15.4,27v556c0,9.7,4.4,18,13.3,24.9c8.9,6.9,20.7,10.3,35.6,10.3h182.8c32,0,61.1-5.9,87.1-17.6
			c26-11.7,46.6-30.9,61.8-57.5c15.2-26.6,22.7-62.2,22.7-106.8v-18c0-28.6-3.7-51.9-11.2-69.9
			C5675.7,793.6,5665.4,779,5652.2,767.9z M5402.5,552.1h95.2c14.3,0,26.6,2.9,36.9,8.6c10.3,5.7,18.3,13.9,24,24.5
			c5.7,10.6,8.6,23.6,8.6,39c0,21.7-5.6,39.5-16.7,53.2s-28.5,20.6-51.9,20.6h-96.1V552.1z M5582.7,890.2c0,32.6-7.4,56.4-22.3,71.2
			c-14.9,14.9-35.5,22.3-61.8,22.3h-96.1V785.5h96.1c26.3,0,46.9,6.7,61.8,20.2c14.9,13.4,22.3,37,22.3,70.8V890.2z"/>
		<path class="st1" d="M6149.5,536.2c-18-28.9-42.3-49.8-72.9-62.6c-30.6-12.9-64.8-19.3-102.5-19.3h-151.9
			c-14.9,0-26.7,3.4-35.6,10.3c-8.9,6.9-13.3,15.2-13.3,24.9v556.9c0,9.7,4.4,18,13.3,24.9c8.9,6.9,20.7,10.3,35.6,10.3H5974
			c37.8,0,71.9-6.4,102.5-19.3c30.6-12.9,54.9-33.7,72.9-62.6c18-28.9,27-67.4,27-115.4V651.6
			C6176.5,603.5,6167.5,565.1,6149.5,536.2z M6065,884.1c0,33.8-8,58.8-24,75.1c-16,16.3-38.1,24.5-66.1,24.5h-90.1V552.1h90.1
			c28,0,50.1,8.2,66.1,24.5c16,16.3,24,41.3,24,75.1V884.1z"/>
	</g>
</g>
</svg>
