<?xml version="1.0" encoding="utf-8"?>
<!-- Generator: Adobe Illustrator 24.2.0, SVG Export Plug-In . SVG Version: 6.00 Build 0)  -->
<svg version="1.1" id="Layer_1" xmlns="http://www.w3.org/2000/svg" xmlns:xlink="http://www.w3.org/1999/xlink" x="0px" y="0px"
	 viewBox="0 0 4053 1528.4" style="enable-background:new 0 0 4053 1528.4;" xml:space="preserve">
<style type="text/css">
	.st0{fill:#F8C213;}
	.st1{fill:#00AA4C;}
	.st2{fill:#08A2D8;}
	.st3{fill:#D23559;}
	.st4{fill:#F06A22;}
	.st5{fill:#333333;}
</style>
<g>
	<path class="st0" d="M821.1,88.6l41.6,7c9.2,1.6,16.8,8.2,19.6,17.1l105.8,344.7c3.2,10.4,12.8,17.5,23.7,17.5l312.1-0.6
		c8.9,0,17.2,4.8,21.6,12.5l15.3,27c9.4,16.5-2.5,36.9-21.4,37L961.9,552c-11.1,0-20.8-7.3-23.9-17.9l-73.6-257.3
		c-6.7-23.4-39.5-24.1-47.3-1L661.2,742.2c-5.4,16.1-24.9,22.1-38.4,11.8l-130.5-99.2c-19-14.5-8.5-44.8,15.4-44.4l99.6,1.7
		c10.8,0.2,20.5-6.7,23.9-16.9l162.5-489.9C797.4,93.6,809.1,86.6,821.1,88.6z"/>
	<path class="st1" d="M1457.2,632.3l6,41.7c1.3,9.3-2.7,18.5-10.4,23.8l-296.3,205.5c-8.9,6.2-12.8,17.5-9.5,27.9l95.4,297.1
		c2.7,8.5,0.7,17.8-5.4,24.3l-21.1,22.8c-12.8,13.9-35.9,8.8-41.7-9.2l-115.8-359.2c-3.4-10.5,0.6-22.1,9.8-28.2l222.8-148.2
		c20.2-13.5,11-45-13.3-45.3l-491.8-7.1c-16.9-0.2-28.6-17.1-23-33l54.9-154.5c8-22.5,40.1-21.7,47,1.2l28.7,95.4
		c3.1,10.4,12.6,17.5,23.4,17.6l516.1,6.1C1445.2,611.3,1455.5,620.3,1457.2,632.3z"/>
	<path class="st2" d="M1138.1,1398.4l-37.5,19.2c-8.3,4.3-18.4,3.5-25.9-2.1l-290.8-213.3c-8.8-6.4-20.7-6.4-29.4,0.1l-249.9,186.9
		c-7.1,5.3-16.6,6.4-24.8,2.8l-28.4-12.5c-17.3-7.6-20-31.1-4.9-42.4l302-226.4c8.9-6.6,21.1-6.6,29.9,0.1L991,1273.4
		c19.3,14.8,46.1-4.3,38.5-27.4L876.1,778.6c-5.3-16.1,6.8-32.6,23.8-32.5l164,1.6c23.9,0.2,33.6,30.9,14.2,44.8l-80.9,58.1
		c-8.8,6.3-12.4,17.6-9,27.9l162.2,490C1154.2,1380.2,1149,1392.8,1138.1,1398.4z"/>
	<path class="st3" d="M305.8,1339.5l-30-29.7c-6.7-6.6-9-16.4-6.1-25.3l112-342.8c3.4-10.3-0.4-21.7-9.3-27.9L116.8,734.6
		c-7.3-5.1-11.3-13.8-10.4-22.7l3-30.9c1.8-18.8,23.3-28.7,38.8-17.9l309.3,216.3c9.1,6.3,12.8,18,9.2,28.4l-88,252.7
		c-8,23,18.4,42.5,38,28.1l396.2-291.5c13.6-10,33.1-3.7,38.2,12.4l49.6,156.3c7.2,22.8-18.9,41.6-38.2,27.5l-80.5-58.7
		c-8.7-6.4-20.6-6.3-29.3,0.1l-414.9,306.9C328.1,1349,314.4,1348,305.8,1339.5z"/>
	<path class="st4" d="M107.6,525.1l18.8-37.7c4.2-8.4,12.7-13.7,22.1-13.7l360.6-0.8c10.9,0,20.5-7.2,23.6-17.6l90.4-298.7
		c2.6-8.5,9.6-15,18.3-17l30.3-6.8c18.5-4.1,34.6,13.1,29.1,31.3L592,525.5c-3.2,10.6-13,17.8-24.1,17.6l-267.6-4.6
		c-24.3-0.4-34.6,30.8-14.8,44.9l400.7,285.3c13.8,9.8,13.9,30.3,0.1,40.2l-133,95.9c-19.4,14-45.4-4.9-38-27.7l30.6-94.8
		c3.3-10.3-0.4-21.5-9.2-27.8L115.5,556.3C105.5,549.3,102.2,536,107.6,525.1z"/>
</g>
<g>
	<path class="st5" d="M1962.2,711l-147-34.2c-37-9-62.8-41.9-62.8-80c0-45.3,37-82.2,82.5-82.2h29.9c63.7,0,123.4,24.7,168.1,69.4
		c0.4,0.3,0.8,0.5,1.3,0.5c0.6,0.1,1-0.2,1.3-0.5l11.9-12.3l67.8-67.8c0.3-0.3,0.5-0.8,0.5-1.3c0-0.5-0.2-0.9-0.5-1.3
		c-66.6-66.6-155-103.2-248.9-103.2c-0.5,0-0.9,0-1.4,0h-29.9c-109.7,0-198.9,89.1-198.9,198.6c0,93,63.1,172.6,153.5,193.5
		l147,34.6c36.8,9,62.4,41.8,62.4,79.7c0,45.5-36.9,82.5-82.2,82.5h-29.9c-63.7,0-123.4-24.7-168.1-69.4c-0.4-0.3-0.8-0.5-1.3-0.5
		c-0.4,0-0.9,0.2-1.3,0.5l-18.4,18.7l-61.3,61.3c-0.3,0.4-0.5,0.8-0.5,1.3c0.1,0.5,0.3,1,0.6,1.3v0
		c66.6,66.6,154.9,103.2,248.9,103.2c0.5,0,0.9,0,1.4,0h29.9c109.7,0,198.9-89.3,198.9-198.9C2115.6,811.9,2052.5,732.3,1962.2,711z
		"/>
	<path class="st5" d="M2453.1,496.3l-24.5-65.2l-11.5-31.7c-0.3-0.8-0.9-1.2-1.7-1.2h-48.7c-0.8,0-1.4,0.5-1.7,1.2L2105.5,1101
		c-0.2,0.5-0.1,1.2,0.2,1.7c0.3,0.5,0.9,0.8,1.5,0.8h120.4c0.8,0,1.4-0.5,1.7-1.2l51.8-139.7h220.2l51.5,139.7
		c0.3,0.7,0.9,1.2,1.7,1.2h120.4c0.6,0,1.2-0.3,1.5-0.8c0.3-0.5,0.4-1.1,0.2-1.7L2453.1,496.3z M2324.3,846l67-181.1l66.9,181.1
		H2324.3z"/>
	<path class="st5" d="M3307.6,652.2c0-140.1-114-254.1-254.1-254.1h-314.6c-1,0-1.8,0.8-1.8,1.8v701.7c0,1,0.8,1.8,1.8,1.8h112.8v0
		c1,0,1.8-0.8,1.8-1.8V905.9h174.4c10.2,0,20.4,4.1,27.9,11.4l139.4,139.7c0.1,0.3,0.3,0.6,0.5,0.8c29.4,29.4,68.5,45.6,110.1,45.6
		c1,0,1.8-0.8,1.8-1.8V988.8c0-1-0.8-1.8-1.8-1.8c-10.1,0-20.3-4.1-27.9-11.4l-101-101.7C3257.6,829.2,3307.6,744.5,3307.6,652.2z
		 M3053.6,789.4h-200v-275h200c75.7,0,137.3,61.7,137.3,137.7C3190.9,727.8,3129.3,789.4,3053.6,789.4z"/>
	<path class="st5" d="M3674.1,398.2h-314.6c-1,0-1.8,0.8-1.8,1.8v701.7c0,1,0.8,1.8,1.8,1.8h112.8c1,0,1.8-0.8,1.8-1.8V905.9h200
		c140.1,0,254.1-113.8,254.1-253.7C3928.2,512.1,3814.2,398.2,3674.1,398.2z M3674.2,789.4h-200v-275h200
		c75.7,0,137.3,61.7,137.3,137.7C3811.5,727.8,3749.9,789.4,3674.2,789.4z"/>
</g>
</svg>
