<svg width="1432" height="1444" viewBox="0 0 1432 1444" fill="none" xmlns="http://www.w3.org/2000/svg">
<path d="M754.539 0.377548L798.379 7.97556C808.1 9.67511 816.071 16.8732 818.987 26.5707L930.483 400.173C933.885 411.47 943.995 419.168 955.465 419.068L1284.32 418.368C1293.74 418.368 1302.4 423.567 1307.06 431.965L1323.2 461.257C1333.02 479.052 1320.57 501.246 1300.65 501.346L902.974 502.646C891.309 502.646 881.005 494.748 877.797 483.251L800.226 204.424C793.227 179.131 758.524 178.331 750.456 203.324L585.983 708.692C580.345 726.088 559.737 732.686 545.447 721.489L407.9 613.917C387.875 598.221 398.957 565.33 424.133 565.73L529.019 567.529C540.393 567.729 550.599 560.331 554.196 549.134L725.474 18.2729C729.46 5.77613 741.805 -1.82188 754.539 0.377548Z" fill="#F3C538"/>
<path d="M1424.78 589.623L1431.1 634.911C1432.46 644.909 1428.28 655.006 1420.11 660.705L1107.89 883.446C1098.46 890.145 1094.37 902.441 1097.87 913.638L1198.38 1235.65C1201.3 1244.85 1199.07 1254.95 1192.75 1262.05L1170.58 1286.74C1157.07 1301.84 1132.77 1296.34 1126.65 1276.74L1004.65 887.445C1001.06 876.048 1005.33 863.552 1015.05 856.853L1249.81 696.195C1271.1 681.599 1261.37 647.408 1235.71 647.108L717.406 639.51C699.52 639.21 687.272 621.015 693.202 603.72L751.039 436.263C759.496 411.87 793.324 412.67 800.615 437.563L830.846 540.936C834.151 552.133 844.066 559.931 855.537 560.031L1399.31 566.629C1412.14 566.729 1422.93 576.527 1424.78 589.623Z" fill="#419C47"/>
<path d="M1088.54 1419.81L1048.98 1440.7C1040.23 1445.3 1029.63 1444.5 1021.66 1438.5L715.267 1207.36C706.033 1200.36 693.396 1200.46 684.259 1207.46L420.926 1410.01C413.441 1415.81 403.428 1417.01 394.777 1413.11L364.837 1399.61C346.562 1391.31 343.744 1365.92 359.685 1353.62L677.843 1108.29C687.175 1101.09 700.006 1101.19 709.338 1108.39L933.496 1284.44C953.813 1300.44 982.1 1279.84 974.129 1254.75L812.377 748.182C806.836 730.686 819.57 712.791 837.359 712.991L1010.19 714.791C1035.37 715.09 1045.58 748.282 1025.16 763.378L940.009 826.361C930.775 833.16 926.886 845.456 930.483 856.553L1101.47 1387.51C1105.46 1400.11 1100.01 1413.81 1088.54 1419.81Z" fill="#46A0D4"/>
<path d="M211.445 1355.92L179.853 1323.73C172.854 1316.63 170.327 1306.04 173.437 1296.34L291.446 924.836C295.043 913.639 291.057 901.342 281.628 894.543L12.3659 700.394C4.68659 694.796 0.5067 685.498 1.38156 675.801L4.58938 642.31C6.53352 621.915 29.0855 611.218 45.5134 622.915L371.35 857.453C380.877 864.351 384.862 876.948 381.071 888.245L288.336 1162.17C279.879 1187.07 307.777 1208.16 328.385 1192.57L745.888 876.648C760.274 865.751 780.785 872.649 786.228 890.145L838.526 1059.5C846.108 1084.19 818.695 1104.49 798.282 1089.29L713.518 1025.71C704.283 1018.81 691.841 1018.81 682.606 1025.81L245.37 1358.42C234.969 1366.32 220.583 1365.22 211.445 1355.92Z" fill="#C33C52"/>
<path d="M2.74242 473.454L22.5726 432.564C26.9469 423.467 35.9871 417.768 45.805 417.668L425.786 416.869C437.256 416.869 447.366 409.071 450.671 397.774L545.933 74.0583C548.655 64.7607 556.043 57.7625 565.18 55.6631L597.064 48.265C616.505 43.7662 633.517 62.5613 627.781 82.1562L513.078 473.754C509.675 485.251 499.371 493.049 487.707 492.849L205.71 487.85C180.145 487.35 169.258 521.241 190.157 536.537L612.326 845.756C626.907 856.454 626.907 878.648 612.423 889.345L472.251 993.318C451.837 1008.51 424.425 988.019 432.202 963.326L464.571 860.652C468.071 849.455 464.085 837.259 454.851 830.56L11.005 507.245C0.50667 499.647 -2.99277 485.251 2.74242 473.454Z" fill="#DB682C"/>
</svg>
